<svg version="1.1" id="Layer_1" xmlns="http://www.w3.org/2000/svg" xmlns:xlink="http://www.w3.org/1999/xlink" x="0px" y="0px"
	 width="100%" viewBox="0 0 512 512" enable-background="new 0 0 512 512" xml:space="preserve">
<path fill="#5854EA" opacity="1.000000" stroke="none" 
	d="
M288.000000,513.000000 
	C192.023300,513.000000 96.546600,513.000000 1.034948,513.000000 
	C1.034948,342.398285 1.034948,171.796539 1.034948,1.097402 
	C171.560043,1.097402 342.120178,1.097402 512.840149,1.097402 
	C512.840149,171.666550 512.840149,342.333252 512.840149,513.000000 
	C438.129852,513.000000 363.314911,513.000000 288.000000,513.000000 
M178.499939,374.169678 
	C215.832291,374.169525 253.164780,374.118134 290.496826,374.225983 
	C295.925385,374.241669 300.376953,372.630554 303.535034,368.272583 
	C308.640289,361.227570 306.481018,346.226715 300.073944,340.244385 
	C295.599670,336.066772 291.199982,331.677338 287.508392,326.819122 
	C277.923737,314.205322 272.788300,299.849121 271.797729,283.968170 
	C271.308136,276.119415 268.411438,273.324524 260.687225,272.547638 
	C256.715851,272.148254 252.715988,271.974731 248.724274,271.843781 
	C214.126083,270.708649 181.436310,278.423065 150.381805,293.383484 
	C142.303711,297.275055 135.871429,303.077576 131.149414,310.941437 
	C124.390213,322.197998 124.495354,334.456604 125.194130,346.791290 
	C126.080429,362.436005 138.290146,373.884918 154.000916,374.143341 
	C161.831955,374.272156 169.666794,374.168304 178.499939,374.169678 
M301.444397,284.966522 
	C304.397217,306.992737 317.228302,320.822723 337.825958,328.414551 
	C337.825958,330.275421 337.825989,332.096222 337.825989,333.917023 
	C337.826111,352.733856 337.712402,371.552094 337.944489,390.366058 
	C337.980835,393.311707 338.826935,396.865784 340.623932,399.046295 
	C344.734039,404.033569 349.539825,408.479401 354.301758,412.887329 
	C357.951874,416.265991 361.778381,416.089905 365.363983,412.601135 
	C371.330811,406.795380 377.210510,400.897644 383.032532,394.946320 
	C386.989960,390.900940 387.042389,387.375488 383.175507,383.228394 
	C379.657043,379.455017 375.814331,375.981506 372.338989,372.171143 
	C369.085907,368.604401 369.183777,365.125122 372.493591,361.575195 
	C375.557800,358.288727 378.832581,355.199005 382.001343,352.009491 
	C387.344727,346.631073 387.391174,343.527252 382.130127,338.131104 
	C378.461090,334.367828 374.724579,330.670380 370.824799,326.749084 
	C372.562103,325.817108 373.577637,325.251373 374.611328,324.720947 
	C392.690247,315.444092 402.726624,300.792694 403.475708,280.379456 
	C404.171967,261.407227 396.125183,246.428284 380.452850,236.107864 
	C363.629120,225.029266 345.418640,224.257843 327.964569,233.924576 
	C308.687897,244.600754 299.532318,261.684418 301.444397,284.966522 
M192.393173,229.069397 
	C209.690826,256.931305 245.860992,265.673889 273.382996,247.989914 
	C303.536743,228.614914 307.408142,194.196655 293.866241,170.306564 
	C274.480042,136.106201 236.363770,133.372818 212.632767,147.757126 
	C184.180359,165.003281 175.162094,200.557739 192.393173,229.069397 
z"/>
<path fill="#FEFEFF" opacity="1.000000" stroke="none" 
	d="
M177.999939,374.169678 
	C169.666794,374.168304 161.831955,374.272156 154.000916,374.143341 
	C138.290146,373.884918 126.080429,362.436005 125.194130,346.791290 
	C124.495354,334.456604 124.390213,322.197998 131.149414,310.941437 
	C135.871429,303.077576 142.303711,297.275055 150.381805,293.383484 
	C181.436310,278.423065 214.126083,270.708649 248.724274,271.843781 
	C252.715988,271.974731 256.715851,272.148254 260.687225,272.547638 
	C268.411438,273.324524 271.308136,276.119415 271.797729,283.968170 
	C272.788300,299.849121 277.923737,314.205322 287.508392,326.819122 
	C291.199982,331.677338 295.599670,336.066772 300.073944,340.244385 
	C306.481018,346.226715 308.640289,361.227570 303.535034,368.272583 
	C300.376953,372.630554 295.925385,374.241669 290.496826,374.225983 
	C253.164780,374.118134 215.832291,374.169525 177.999939,374.169678 
z"/>
<path fill="#FDFDFF" opacity="1.000000" stroke="none" 
	d="
M301.380615,284.517822 
	C299.532318,261.684418 308.687897,244.600754 327.964569,233.924576 
	C345.418640,224.257843 363.629120,225.029266 380.452850,236.107864 
	C396.125183,246.428284 404.171967,261.407227 403.475708,280.379456 
	C402.726624,300.792694 392.690247,315.444092 374.611328,324.720947 
	C373.577637,325.251373 372.562103,325.817108 370.824799,326.749084 
	C374.724579,330.670380 378.461090,334.367828 382.130127,338.131104 
	C387.391174,343.527252 387.344727,346.631073 382.001343,352.009491 
	C378.832581,355.199005 375.557800,358.288727 372.493591,361.575195 
	C369.183777,365.125122 369.085907,368.604401 372.338989,372.171143 
	C375.814331,375.981506 379.657043,379.455017 383.175507,383.228394 
	C387.042389,387.375488 386.989960,390.900940 383.032532,394.946320 
	C377.210510,400.897644 371.330811,406.795380 365.363983,412.601135 
	C361.778381,416.089905 357.951874,416.265991 354.301758,412.887329 
	C349.539825,408.479401 344.734039,404.033569 340.623932,399.046295 
	C338.826935,396.865784 337.980835,393.311707 337.944489,390.366058 
	C337.712402,371.552094 337.826111,352.733856 337.825989,333.917023 
	C337.825989,332.096222 337.825958,330.275421 337.825958,328.414551 
	C317.228302,320.822723 304.397217,306.992737 301.380615,284.517822 
M338.069214,274.963989 
	C340.112274,281.748077 344.747772,285.729126 351.089539,286.146027 
	C357.427765,286.562744 363.127472,283.492279 365.551727,278.355286 
	C368.180603,272.784668 367.166534,266.017273 363.042603,261.611084 
	C359.041168,257.335663 352.387024,255.863480 346.942078,258.048981 
	C340.358887,260.691345 337.714233,265.423187 338.069214,274.963989 
z"/>
<path fill="#FEFEFF" opacity="1.000000" stroke="none" 
	d="
M192.198608,228.760376 
	C175.162094,200.557739 184.180359,165.003281 212.632767,147.757126 
	C236.363770,133.372818 274.480042,136.106201 293.866241,170.306564 
	C307.408142,194.196655 303.536743,228.614914 273.382996,247.989914 
	C245.860992,265.673889 209.690826,256.931305 192.198608,228.760376 
z"/>
<path fill="#5955EA" opacity="1.000000" stroke="none" 
	d="
M338.012878,274.545044 
	C337.714233,265.423187 340.358887,260.691345 346.942078,258.048981 
	C352.387024,255.863480 359.041168,257.335663 363.042603,261.611084 
	C367.166534,266.017273 368.180603,272.784668 365.551727,278.355286 
	C363.127472,283.492279 357.427765,286.562744 351.089539,286.146027 
	C344.747772,285.729126 340.112274,281.748077 338.012878,274.545044 
z"/>
</svg>